<?xml version="1.0" standalone="no"?>
<!DOCTYPE svg PUBLIC "-//W3C//DTD SVG 20010904//EN"
 "http://www.w3.org/TR/2001/REC-SVG-20010904/DTD/svg10.dtd">
<svg version="1.0" xmlns="http://www.w3.org/2000/svg"
 width="256.000000pt" height="256.000000pt" viewBox="0 0 256.000000 256.000000"
 preserveAspectRatio="xMidYMid meet">
<metadata>
Created by potrace 1.11, written by Peter Selinger 2001-2013
</metadata>
<g transform="translate(0.000000,256.000000) scale(0.100000,-0.100000)"
fill="#000000" stroke="none">
<path d="M840 1806 l0 -173 41 -7 c23 -4 43 -5 44 -4 1 2 24 63 50 136 27 74
53 136 59 138 6 2 130 3 274 2 l263 -3 -402 -585 c-220 -322 -403 -590 -406
-597 -2 -6 6 -27 19 -47 l23 -36 513 0 512 0 -2 177 -3 177 -39 8 c-25 5 -42
5 -46 -2 -3 -5 -28 -71 -54 -145 l-49 -135 -314 0 -315 0 35 48 c103 143 777
1132 777 1141 0 6 -14 26 -31 46 l-31 35 -459 0 -459 0 0 -174z"/>
</g>
</svg>
